<?xml version="1.0" standalone="no"?>
<!DOCTYPE svg PUBLIC "-//W3C//DTD SVG 20010904//EN"
 "http://www.w3.org/TR/2001/REC-SVG-20010904/DTD/svg10.dtd">
<svg version="1.0" xmlns="http://www.w3.org/2000/svg"
 width="512.000000pt" height="512.000000pt" viewBox="0 0 512.000000 512.000000"
 preserveAspectRatio="xMidYMid meet">
<metadata>
Created by potrace 1.14, written by Peter Selinger 2001-2017
</metadata>
<g transform="translate(0.000000,512.000000) scale(0.100000,-0.100000)"
fill="#000000" stroke="none">
<path d="M0 2560 l0 -2560 2560 0 2560 0 0 2560 0 2560 -2560 0 -2560 0 0
-2560z m2875 1666 c339 -55 577 -168 771 -364 200 -202 300 -493 280 -812 -33
-513 -306 -849 -795 -976 -158 -41 -298 -54 -577 -54 l-254 0 0 -474 0 -474
-22 -5 c-69 -18 -276 -37 -386 -37 -144 1 -259 18 -319 48 -88 45 -146 135
-164 254 -6 39 -8 556 -7 1343 3 1422 -3 1302 70 1374 85 84 306 149 628 186
171 19 635 14 775 -9z"/>
<path d="M2318 3523 c-17 -4 -18 -32 -18 -405 l0 -401 193 6 c207 6 259 15
347 63 117 64 170 169 170 338 0 159 -46 257 -156 331 -87 59 -165 75 -360 74
-88 -1 -167 -3 -176 -6z"/>
</g>
</svg>
